<svg width="179" height="179" viewBox="0 0 179 179" fill="none" xmlns="http://www.w3.org/2000/svg">
<mask id="mask0_141_52" style="mask-type:luminance" maskUnits="userSpaceOnUse" x="0" y="0" width="179" height="179">
<path d="M150.953 2.02333e-05L0 27.3406L27.3406 178.294L178.294 150.953L150.953 2.02333e-05Z" fill="white"/>
</mask>
<g mask="url(#mask0_141_52)">
<path fill-rule="evenodd" clip-rule="evenodd" d="M33.492 99.2272C-3.87404 164.955 50.7803 202.847 99.2272 144.802C164.944 182.17 202.84 127.47 144.802 79.0668C182.168 13.3391 127.503 -24.5513 79.0668 33.4921C13.3391 -3.87407 -24.5533 50.7803 33.492 99.2272ZM94.205 117.073C109.629 114.28 119.867 99.5127 117.073 84.089C114.28 68.6657 99.5126 58.4271 84.089 61.2206C68.6657 64.0141 58.4271 78.7817 61.2206 94.205C64.0141 109.629 78.7817 119.867 94.205 117.073Z" fill="#E27F3E"/>
</g>
</svg>
